<svg xmlns="http://www.w3.org/2000/svg" height="48" width="48"><path d="M5.3 20.1q0-4.15 1.75-7.925Q8.8 8.4 12.05 5.7l2.35 2.65q-2.7 2.15-4.15 5.25-1.45 3.1-1.45 6.5Zm33.95 0q0-3.4-1.375-6.5T33.8 8.35l2.4-2.65q3.2 2.7 4.9 6.45 1.7 3.75 1.7 7.95ZM6.95 38.55V34.7h4.45V20.15q0-4.35 2.55-7.875Q16.5 8.75 20.75 7.8V6.55q0-1.35.95-2.225T24 3.45q1.35 0 2.3.875.95.875.95 2.225V7.8q4.25.95 6.85 4.45 2.6 3.5 2.6 7.9V34.7h4.4v3.85ZM24 23.35Zm0 21.2q-1.7 0-2.95-1.25-1.25-1.25-1.25-2.95h8.4q0 1.75-1.25 2.975T24 44.55Zm-8.75-9.85h17.6V20.2q0-3.7-2.55-6.3-2.55-2.6-6.25-2.6t-6.25 2.6q-2.55 2.6-2.55 6.25Z"/></svg>